<svg width="26" height="20" viewBox="0 0 26 20" fill="none" xmlns="http://www.w3.org/2000/svg">
<path fill-rule="evenodd" clip-rule="evenodd" d="M13.0001 18.25C8.52078 18.25 4.45847 15.1493 2.02955 10.2224C4.46704 5.00806 8.53766 1.75 13.0001 1.75C17.4625 1.75 21.5331 5.00806 23.9706 10.2224C21.5417 15.1493 17.4794 18.25 13.0001 18.25ZM13.0001 0.25C7.63882 0.25 3.0731 4.21941 0.516516 9.92404C0.426981 10.1238 0.42921 10.3528 0.522617 10.5508C3.08889 15.9907 7.66023 19.75 13.0001 19.75C18.34 19.75 22.9113 15.9907 25.4776 10.5508C25.571 10.3528 25.5732 10.1238 25.4837 9.92404C22.9271 4.21941 18.3614 0.25 13.0001 0.25ZM9.7981 10.0664C9.7981 8.2967 11.2312 6.86389 12.9993 6.86389C14.7678 6.86389 16.2018 8.29701 16.2018 10.0664C16.2018 11.8344 14.7679 13.2676 12.9993 13.2676C11.2311 13.2676 9.7981 11.8347 9.7981 10.0664ZM12.9993 5.36389C10.4025 5.36389 8.2981 7.46858 8.2981 10.0664C8.2981 12.6631 10.4026 14.7676 12.9993 14.7676C15.5957 14.7676 17.7018 12.6634 17.7018 10.0664C17.7018 7.46827 15.5959 5.36389 12.9993 5.36389Z" fill="white"/>
</svg>
