<svg width="44" height="45" viewBox="0 0 44 45" fill="none" xmlns="http://www.w3.org/2000/svg">
<path fill-rule="evenodd" clip-rule="evenodd" d="M22 0.599854C9.84974 0.599854 0 10.3986 0 22.4861C0 34.5735 9.84974 44.3723 22 44.3723C34.1503 44.3723 44 34.5735 44 22.4861C44 10.3986 34.1503 0.599854 22 0.599854ZM17.1629 10.8839C18.4145 10.8272 18.8144 10.8134 22.001 10.8134H21.9974C25.185 10.8134 25.5834 10.8272 26.835 10.8839C28.0841 10.9408 28.9372 11.1375 29.6852 11.4262C30.4577 11.7241 31.1104 12.1229 31.763 12.7722C32.4157 13.421 32.8166 14.0722 33.1173 14.84C33.4057 15.5822 33.6037 16.4304 33.6624 17.673C33.7186 18.9181 33.7333 19.316 33.7333 22.4861C33.7333 25.6562 33.7186 26.0531 33.6624 27.2982C33.6037 28.5404 33.4057 29.3889 33.1173 30.1313C32.8166 30.8988 32.4157 31.55 31.763 32.1988C31.1111 32.8481 30.4574 33.2479 29.686 33.5461C28.9394 33.8347 28.0858 34.0315 26.8367 34.0884C25.5851 34.145 25.1864 34.1589 21.9996 34.1589C18.8132 34.1589 18.4135 34.145 17.162 34.0884C15.9131 34.0315 15.0602 33.8347 14.3137 33.5461C13.5424 33.2479 12.8878 32.8481 12.2359 32.1988C11.5834 31.55 11.1825 30.8988 10.8826 30.1311C10.5927 29.3889 10.3949 28.5406 10.3375 27.298C10.2808 26.0529 10.2666 25.6562 10.2666 22.4861C10.2666 19.316 10.2813 18.9179 10.3372 17.6728C10.3935 16.4306 10.5915 15.5822 10.8824 14.8397C11.183 14.0722 11.5839 13.421 12.2366 12.7722C12.8888 12.1231 13.5434 11.7243 14.3151 11.4262C15.0612 11.1375 15.9138 10.9408 17.1629 10.8839ZM21.6101 12.9171C21.3729 12.917 21.153 12.9169 20.9486 12.9172V12.9143C18.7618 12.9167 18.3423 12.9313 17.2599 12.9799C16.1159 13.0322 15.4947 13.2219 15.0811 13.3824C14.5336 13.5944 14.1425 13.8473 13.7318 14.2559C13.3211 14.6644 13.0664 15.0535 12.8537 15.5983C12.6931 16.0097 12.502 16.6274 12.4497 17.7655C12.3934 18.996 12.3822 19.3637 12.3822 22.4808C12.3822 25.5979 12.3934 25.9676 12.4497 27.1981C12.5017 28.3362 12.6931 28.9538 12.8537 29.3648C13.0669 29.9098 13.3211 30.2979 13.7318 30.7065C14.1425 31.115 14.5336 31.3679 15.0811 31.5795C15.495 31.7393 16.1159 31.9294 17.2599 31.982C18.4968 32.0379 18.8681 32.05 22.0012 32.05C25.134 32.05 25.5056 32.0379 26.7425 31.982C27.8865 31.9299 28.5079 31.7402 28.921 31.5797C29.4688 31.3682 29.8587 31.1153 30.2694 30.7067C30.68 30.2984 30.9347 29.9105 31.1474 29.3658C31.308 28.9548 31.4992 28.3371 31.5515 27.199C31.6077 25.9685 31.6199 25.5989 31.6199 22.4837C31.6199 19.3686 31.6077 18.9989 31.5515 17.7684C31.4994 16.6303 31.308 16.0126 31.1474 15.6017C30.9343 15.0569 30.68 14.6678 30.2694 14.2593C29.8589 13.8507 29.4686 13.5978 28.921 13.3863C28.5074 13.2265 27.8865 13.0363 26.7425 12.9843C25.5053 12.9284 25.134 12.9172 22.0012 12.9172C21.8658 12.9172 21.7355 12.9171 21.6101 12.9171ZM26.8563 16.2553C26.8563 15.4818 27.487 14.8551 28.2643 14.8551V14.8546C29.0417 14.8546 29.6724 15.482 29.6724 16.2553C29.6724 17.0287 29.0417 17.6561 28.2643 17.6561C27.487 17.6561 26.8563 17.0287 26.8563 16.2553ZM15.9755 22.4864C15.9755 19.176 18.6733 16.492 22.0008 16.4919C25.3285 16.4919 28.0257 19.1759 28.0257 22.4864C28.0257 25.7968 25.3287 28.4796 22.0011 28.4796C18.6734 28.4796 15.9755 25.7968 15.9755 22.4864ZM25.9124 22.4864C25.9124 20.3374 24.1612 18.5954 22.0012 18.5954C19.8411 18.5954 18.0901 20.3374 18.0901 22.4864C18.0901 24.6351 19.8411 26.3773 22.0012 26.3773C24.1612 26.3773 25.9124 24.6351 25.9124 22.4864Z" fill="#0E5A4C"/>
</svg>
