<svg width="44" height="45" viewBox="0 0 44 45" fill="none" xmlns="http://www.w3.org/2000/svg">
<path fill-rule="evenodd" clip-rule="evenodd" d="M22 0.599854C9.84974 0.599854 0 10.3986 0 22.4861C0 34.5735 9.84974 44.3723 22 44.3723C34.1503 44.3723 44 34.5735 44 22.4861C44 10.3986 34.1503 0.599854 22 0.599854ZM23.7912 29.3954C23.5743 29.6229 23.1508 29.6689 23.1508 29.6689H21.7482C21.7482 29.6689 18.6539 29.8504 15.9279 27.0798C12.9553 24.057 10.3303 18.0596 10.3303 18.0596C10.3303 18.0596 10.1788 17.6662 10.343 17.4767C10.5278 17.2627 11.0316 17.2492 11.0316 17.2492L14.3842 17.2279C14.3842 17.2279 14.6999 17.2784 14.926 17.4409C15.113 17.5754 15.2175 17.8253 15.2175 17.8253C15.2175 17.8253 15.7592 19.1636 16.4766 20.374C17.878 22.7378 18.5299 23.2545 19.0051 23.0012C19.6983 22.6324 19.4906 19.6601 19.4906 19.6601C19.4906 19.6601 19.5032 18.5819 19.1417 18.101C18.8616 17.7289 18.3336 17.6202 18.1007 17.5899C17.9113 17.5653 18.2212 17.1371 18.6229 16.9455C19.2266 16.6574 20.2917 16.6406 21.5508 16.653C22.5321 16.663 22.8145 16.7224 23.1978 16.8132C24.0875 17.0229 24.0598 17.6948 23.9998 19.1449C23.9819 19.5786 23.9611 20.0819 23.9611 20.6632C23.9611 20.7938 23.9572 20.9331 23.9532 21.0763C23.9324 21.8193 23.9086 22.67 24.4099 22.9866C24.667 23.148 25.2948 23.0102 26.8661 20.4054C27.611 19.1703 28.1688 17.7188 28.1688 17.7188C28.1688 17.7188 28.2916 17.4599 28.481 17.349C28.6749 17.2358 28.9366 17.2705 28.9366 17.2705L32.4648 17.2492C32.4648 17.2492 33.5253 17.1248 33.6964 17.5933C33.8765 18.0831 33.3004 19.2286 31.8588 21.1048C30.4917 22.8846 29.8262 23.5401 29.8869 24.1197C29.9313 24.5435 30.3638 24.9266 31.1942 25.6788C32.9271 27.2499 33.3916 28.0765 33.5032 28.275C33.5124 28.2915 33.5193 28.3037 33.5242 28.3116C34.3012 29.5702 32.6622 29.6689 32.6622 29.6689L29.5277 29.7115C29.5277 29.7115 28.8551 29.8415 27.9691 29.2474C27.5049 28.9365 27.0513 28.4287 26.6193 27.9451C25.9596 27.2064 25.3501 26.5241 24.8299 26.6853C23.9565 26.9565 23.9829 28.7935 23.9829 28.7935C23.9829 28.7935 23.9898 29.1869 23.7912 29.3954Z" fill="#0E5A4C"/>
</svg>
